<svg width="90" height="54" viewBox="0 0 90 54" fill="none" xmlns="http://www.w3.org/2000/svg">
<path d="M90 40.9651C84.9525 47.5181 77.6577 52.1985 69.1002 53.5849C60.3014 55.0104 51.7771 52.6929 44.9922 47.7653C50.0397 41.2123 57.3364 36.5319 65.892 35.1455C74.6889 33.7221 83.2151 36.0375 90 40.9651Z" fill="#322D76"/>
<path d="M90 40.9651C84.9525 47.5181 77.6577 52.1985 69.1002 53.5849C60.3014 55.0104 51.7771 52.6929 44.9922 47.7653C50.0397 41.2123 57.3364 36.5319 65.892 35.1455C74.6889 33.7221 83.2151 36.0375 90 40.9651Z" stroke="white"/>
<path d="M0 40.8456C6.61232 36.0705 14.8718 33.7612 23.453 34.9869C32.2753 36.2476 39.821 41.0145 44.992 47.7653C38.3797 52.5404 30.1182 54.8497 21.5391 53.624C12.7207 52.3612 5.17298 47.5943 0 40.8456Z" fill="#322D76"/>
<path d="M0 40.8456C6.61232 36.0705 14.8718 33.7612 23.453 34.9869C32.2753 36.2476 39.821 41.0145 44.992 47.7653C38.3797 52.5404 30.1182 54.8497 21.5391 53.624C12.7207 52.3612 5.17298 47.5943 0 40.8456Z" stroke="white"/>
<g opacity="0.8">
<path d="M74.9063 11.7876C75.1455 20.2152 72.5159 28.7581 66.886 35.6695C61.0973 42.7745 53.1946 46.8555 44.994 47.766C44.7547 39.3384 47.3844 30.7955 53.0142 23.8841C58.801 16.779 66.7036 12.6961 74.9063 11.7876Z" fill="#A6244B"/>
<path d="M74.9063 11.7876C75.1455 20.2152 72.5159 28.7581 66.886 35.6695C61.0973 42.7745 53.1946 46.8555 44.994 47.766C44.7547 39.3384 47.3844 30.7955 53.0142 23.8841C58.801 16.779 66.7036 12.6961 74.9063 11.7876Z" stroke="white"/>
</g>
<g opacity="0.8">
<path d="M15.5956 11.3201C23.5629 12.3315 31.2106 16.3362 36.8758 23.2167C42.6998 30.2909 45.3608 39.1078 44.9922 47.764C37.0248 46.7525 29.3752 42.7458 23.7119 35.8674C17.8879 28.7953 15.2269 19.9763 15.5956 11.3201Z" fill="#A6244B"/>
<path d="M15.5956 11.3201C23.5629 12.3315 31.2106 16.3362 36.8758 23.2167C42.6998 30.2909 45.3608 39.1078 44.9922 47.764C37.0248 46.7525 29.3752 42.7458 23.7119 35.8674C17.8879 28.7953 15.2269 19.9763 15.5956 11.3201Z" stroke="white"/>
</g>
<path d="M45.4531 0C50.8496 6.23983 54.1401 14.5253 54.1401 23.6223C54.1401 32.9749 50.6613 41.4725 44.9922 47.7659C39.5957 41.5261 36.3052 33.2386 36.3052 24.1435C36.3052 14.7931 39.784 6.29339 45.4531 0Z" fill="#765EA8"/>
<path d="M45.4531 0C50.8496 6.23983 54.1401 14.5253 54.1401 23.6223C54.1401 32.9749 50.6613 41.4725 44.9922 47.7659C39.5957 41.5261 36.3052 33.2386 36.3052 24.1435C36.3052 14.7931 39.784 6.29339 45.4531 0Z" stroke="white"/>
</svg>
